<svg xmlns="http://www.w3.org/2000/svg" viewBox="0 0 256 256"><defs><style>.cls-1{fill:#231f20;}.cls-2{fill:#fff;}</style></defs><title>desktop_guys_logo256pxv1.1</title><g id="Layer_2" data-name="Layer 2"><g id="Desktop_Guys" data-name="Desktop Guys"><g id="_256px" data-name="256px"><path class="cls-1" d="M14,0H152A104,104,0,0,1,256,104v48A104,104,0,0,1,152,256H14A14,14,0,0,1,0,242V14A14,14,0,0,1,14,0Z"/><path class="cls-2" d="M99,111.33V144a7,7,0,0,0,7,7h32a7,7,0,0,0,7-7v-6a7,7,0,0,1,7-7h26a7,7,0,0,1,7,7v46a7,7,0,0,1-7,7H66a7,7,0,0,1-7-7V71.33a7,7,0,0,1,7-7H178a7,7,0,0,1,7,7v26a7,7,0,0,1-7,7H106A7,7,0,0,0,99,111.33Z"/></g></g></g></svg>